# xmcd
# Copyright (C) 1995-1998 Ti Kan
#
# Track frame offsets:
#       150
#       19157
#       30437
#       43597
#       59080
#       74675
#       92332
#       109200
#       124002
#       133177
#       152720
#       166812
#
# Disc length: 2389 seconds
#
# Revision: 0
# Processed by: cddbd v1.5.1PL0 Copyright (c) Steve Scherf et al.
# Submitted via: CD-Transfer v1.0
#
DISCID=a109530c
DTITLE=Coal - Let's Build Us A Rocket
DYEAR=2005
DGENRE=
TTITLE0=Let's Build Us A Rocket
TTITLE1=X-Girl's Moonshine
TTITLE2=Railroad Man
TTITLE3=Stuck In Love
TTITLE4=Rain Keeps Falling Down
TTITLE5=Heartache Town
TTITLE6=Sweet Sixteen
TTITLE7=Too Young To Write A Song
TTITLE8=Runnin'
TTITLE9=Signed: The Liar
TTITLE10=I'll Be Gone
TTITLE11=I Ain't Over You
EXTD=
EXTT0=
EXTT1=
EXTT2=
EXTT3=
EXTT4=
EXTT5=
EXTT6=
EXTT7=
EXTT8=
EXTT9=
EXTT10=
EXTT11=
PLAYORDER=
